<?xml version="1.0" encoding="UTF-8"?>
<svg id="Layer_1" xmlns="http://www.w3.org/2000/svg" xmlns:xlink="http://www.w3.org/1999/xlink" xmlns:serif="http://www.serif.com/" version="1.1" viewBox="0 0 6048 864">
  <!-- Generator: Adobe Illustrator 29.5.0, SVG Export Plug-In . SVG Version: 2.1.0 Build 137)  -->
  <defs>
    <style>
      .st0 {
        fill: none;
      }

      .st1 {
        fill: url(#radial-gradient);
      }

      .st1, .st2, .st3, .st4 {
        fill-rule: evenodd;
      }

      .st5 {
        isolation: isolate;
      }

      .st6 {
        clip-path: url(#clippath-1);
      }

      .st7 {
        clip-path: url(#clippath-2);
      }

      .st2 {
        fill: url(#radial-gradient1);
      }

      .st3 {
        fill: url(#linear-gradient);
      }

      .st4 {
        fill: url(#linear-gradient1);
      }

      .st8 {
        clip-path: url(#clippath);
      }
    </style>
    <clipPath id="clippath">
      <rect class="st0" x="2592" width="862" height="862"/>
    </clipPath>
    <clipPath id="clippath-1">
      <path class="st0" d="M2787,47.7c-80.9,0-146.7,65.8-146.7,146.6v473.8c0,80.9,65.8,146.7,146.7,146.7h471.3c80.9,0,146.7-65.8,146.7-146.7V194.3c0-80.9-65.8-146.6-146.7-146.6h-471.3ZM2654.3,668.1V194.3c0-73.2,59.5-132.7,132.7-132.7h471.3c73.2,0,132.7,59.5,132.7,132.7v473.8c0,73.2-59.5,132.7-132.7,132.7h-471.3c-73.2,0-132.7-59.5-132.7-132.7Z"/>
    </clipPath>
    <linearGradient id="linear-gradient" x1="0" y1="864" x2="1" y2="864" gradientTransform="translate(666823 814.8) rotate(-90) scale(768.3 -768.3)" gradientUnits="userSpaceOnUse">
      <stop offset="0" stop-color="#b2b2b2"/>
      <stop offset="1" stop-color="#f1f2f2"/>
    </linearGradient>
    <clipPath id="clippath-2">
      <path class="st0" d="M2787,61.6c-73.2,0-132.7,59.5-132.7,132.7v473.8c0,73.2,59.5,132.7,132.7,132.7h471.3c73.2,0,132.7-59.5,132.7-132.7V194.3c0-73.2-59.5-132.7-132.7-132.7h-471.3Z"/>
    </clipPath>
    <linearGradient id="linear-gradient1" x1="0" y1="864" x2="1" y2="864" gradientTransform="translate(528623.9 -366578.3) rotate(-125) scale(742 -742)" gradientUnits="userSpaceOnUse">
      <stop offset="0" stop-color="#e9e9ea"/>
      <stop offset="1" stop-color="#fdfdfd"/>
    </linearGradient>
    <radialGradient id="radial-gradient" cx="0" cy="864" fx="0" fy="864" r="1" gradientTransform="translate(2662.9 128332.1) scale(148 -148)" gradientUnits="userSpaceOnUse">
      <stop offset="0" stop-color="#d8d9da"/>
      <stop offset="1" stop-color="#f1f2f2"/>
    </radialGradient>
    <radialGradient id="radial-gradient1" cx="0" cy="864" fx="0" fy="864" r="1" gradientTransform="translate(3381.6 128335) scale(148 -148)" gradientUnits="userSpaceOnUse">
      <stop offset="0" stop-color="#d8d9da"/>
      <stop offset="1" stop-color="#f1f2f2"/>
    </radialGradient>
  </defs>
  <g id="flux-glyph-white">
    <rect class="st0" x="2592" width="862" height="862"/>
    <g class="st8">
      <g>
        <image id="_Image2" class="st5" width="379" height="382" transform="translate(2603.3 8.8) scale(2.2)" xlink:href="favicon-1.png"/>
        <g class="st6">
          <path class="st3" d="M2640.3,814.8V47.7h764.6v767.1h-764.6Z"/>
        </g>
        <g class="st7">
          <path class="st4" d="M2904.6,1099.3l-549.9-786.5,786-549.6,549.9,786.5-786,549.6Z"/>
        </g>
        <path class="st1" d="M2653.7,431.3c0,13.5,0,208.8,0,209,0,0,0,0,0,0,0,0,0,0,0,0,10.8-26.5,18.6-110.1,18.6-209.1s-7.8-182.7-18.6-209.2c0,0,0,195.4,0,209.2Z"/>
        <path class="st2" d="M3390.9,222.1c-10.8,26.5-18.6,110.1-18.6,209.2s7.8,182.6,18.6,209.1c0,.1,0-195.4,0-209.2s0-208.8,0-209c0,0,0,0,0,0Z"/>
        <image id="_Image9" class="st5" width="303" height="284" transform="translate(2687.7 102.9) scale(2.2)" xlink:href="favicon-2.png"/>
      </g>
    </g>
  </g>
  <g id="_x39_sZBw0.tif">
    <image id="Layer_11" data-name="Layer_1" width="486" height="456" transform="translate(2689.9 134.6) scale(1.4 1.3)" xlink:href="favicon-3.png"/>
  </g>
</svg>